<svg viewBox="0,0,960,400" width="960" height="400" xmlns="http://www.w3.org/2000/svg" xmlns:xlink="http://www.w3.org/1999/xlink"><g transform="translate(480 250)" height="300" font-family="sans-serif" id="chart"><defs><clipPath id="trianglePath"><path d="M1.2246467991473532e-14,-200L-173.20508075688775,99.99999999999999L173.20508075688775,99.99999999999999Z"/></clipPath></defs><g class="axis-labels"><text dy=".5em" transform="translate(0,-220)rotate(0)" text-anchor="middle">{x}</text><text dy=".5em" transform="translate(-207.8460969082653,120)rotate(0)" text-anchor="middle">{y}</text><text dy="-0.5em" transform="translate(225.1666049839541,129.99999999999997)rotate(0)" text-anchor="middle">{z}</text></g><g class="grid"><path d="M173.20508075688775,99.99999999999999L-173.20508075688775,100 M155.884572681199,69.99999999999999L-155.884572681199,70 M138.5640646055102,39.999999999999986L-138.5640646055102,40 M121.24355652982143,9.999999999999986L-121.2435565298214,10 M103.92304845413265,-20.000000000000014L-103.92304845413264,-20 M86.60254037844388,-50.000000000000014L-86.60254037844386,-50 M69.2820323027551,-80.00000000000001L-69.28203230275508,-80 M51.961524227066334,-110.00000000000001L-51.96152422706632,-109.99999999999999 M34.641016151377556,-140L-34.64101615137753,-140 M17.320508075688764,-170L-17.32050807568876,-170 M0,-200L1.2246467991473532e-14,-200" stroke="#e3e3e3" stroke-width="2"/><path d="M1.2246467991473532e-14,-200L173.20508075688775,99.99999999999999 M-17.320508075688764,-170L138.56406460551023,99.99999999999999 M-34.641016151377535,-140L103.92304845413264,99.99999999999999 M-51.96152422706631,-110L69.28203230275508,99.99999999999999 M-69.28203230275508,-80L34.641016151377556,99.99999999999999 M-86.60254037844386,-50L0,99.99999999999999 M-103.92304845413264,-20L-34.641016151377556,99.99999999999999 M-121.2435565298214,10L-69.28203230275508,99.99999999999999 M-138.5640646055102,40L-103.92304845413267,99.99999999999999 M-155.884572681199,70L-138.56406460551023,99.99999999999999 M-173.20508075688775,100L-173.20508075688775,99.99999999999999" stroke="#e3e3e3" stroke-width="1"/><path d="M-173.20508075688775,99.99999999999999L0,-200 M-138.5640646055102,99.99999999999999L17.320508075688764,-170 M-103.92304845413265,99.99999999999999L34.641016151377556,-140 M-69.2820323027551,99.99999999999999L51.961524227066334,-110.00000000000001 M-34.641016151377556,99.99999999999999L69.2820323027551,-80.00000000000001 M0,99.99999999999999L86.60254037844388,-50.000000000000014 M34.641016151377556,99.99999999999999L103.92304845413265,-20.000000000000014 M69.28203230275508,99.99999999999999L121.24355652982142,9.999999999999972 M103.92304845413264,99.99999999999999L138.56406460551023,40 M138.56406460551023,99.99999999999999L155.884572681199,70 M173.20508075688775,99.99999999999999L173.20508075688775,99.99999999999999" stroke="#e3e3e3" stroke-width="2"/></g><g class="ternary-ticks" font-size="10"><g class="axis-ticks"><g class="tick" transform="translate(173.20508075688775,99.99999999999999)"><text text-anchor="start" transform="rotate(0)" dx="11" dy=".5em">0%</text><line transform="rotate(90)" y2="-6" stroke="grey"/></g><g class="tick" transform="translate(155.884572681199,69.99999999999999)"><text text-anchor="start" transform="rotate(0)" dx="11" dy=".5em">10%</text><line transform="rotate(90)" y2="-6" stroke="grey"/></g><g class="tick" transform="translate(138.5640646055102,39.999999999999986)"><text text-anchor="start" transform="rotate(0)" dx="11" dy=".5em">20%</text><line transform="rotate(90)" y2="-6" stroke="grey"/></g><g class="tick" transform="translate(121.24355652982143,9.999999999999986)"><text text-anchor="start" transform="rotate(0)" dx="11" dy=".5em">30%</text><line transform="rotate(90)" y2="-6" stroke="grey"/></g><g class="tick" transform="translate(103.92304845413265,-20.000000000000014)"><text text-anchor="start" transform="rotate(0)" dx="11" dy=".5em">40%</text><line transform="rotate(90)" y2="-6" stroke="grey"/></g><g class="tick" transform="translate(86.60254037844388,-50.000000000000014)"><text text-anchor="start" transform="rotate(0)" dx="11" dy=".5em">50%</text><line transform="rotate(90)" y2="-6" stroke="grey"/></g><g class="tick" transform="translate(69.2820323027551,-80.00000000000001)"><text text-anchor="start" transform="rotate(0)" dx="11" dy=".5em">60%</text><line transform="rotate(90)" y2="-6" stroke="grey"/></g><g class="tick" transform="translate(51.961524227066334,-110.00000000000001)"><text text-anchor="start" transform="rotate(0)" dx="11" dy=".5em">70%</text><line transform="rotate(90)" y2="-6" stroke="grey"/></g><g class="tick" transform="translate(34.641016151377556,-140)"><text text-anchor="start" transform="rotate(0)" dx="11" dy=".5em">80%</text><line transform="rotate(90)" y2="-6" stroke="grey"/></g><g class="tick" transform="translate(17.320508075688764,-170)"><text text-anchor="start" transform="rotate(0)" dx="11" dy=".5em">90%</text><line transform="rotate(90)" y2="-6" stroke="grey"/></g><g class="tick" transform="translate(0,-200)"><text text-anchor="start" transform="rotate(0)" dx="11" dy=".5em">100%</text><line transform="rotate(90)" y2="-6" stroke="grey"/></g></g><g class="axis-ticks"><g class="tick" transform="translate(1.2246467991473532e-14,-200)"><text text-anchor="end" transform="rotate(0)" dx="-11" dy=".5em">0%</text><line transform="rotate(90)" y2="6" stroke="grey"/></g><g class="tick" transform="translate(-17.320508075688764,-170)"><text text-anchor="end" transform="rotate(0)" dx="-11" dy=".5em">10%</text><line transform="rotate(90)" y2="6" stroke="grey"/></g><g class="tick" transform="translate(-34.641016151377535,-140)"><text text-anchor="end" transform="rotate(0)" dx="-11" dy=".5em">20%</text><line transform="rotate(90)" y2="6" stroke="grey"/></g><g class="tick" transform="translate(-51.96152422706631,-110)"><text text-anchor="end" transform="rotate(0)" dx="-11" dy=".5em">30%</text><line transform="rotate(90)" y2="6" stroke="grey"/></g><g class="tick" transform="translate(-69.28203230275508,-80)"><text text-anchor="end" transform="rotate(0)" dx="-11" dy=".5em">40%</text><line transform="rotate(90)" y2="6" stroke="grey"/></g><g class="tick" transform="translate(-86.60254037844386,-50)"><text text-anchor="end" transform="rotate(0)" dx="-11" dy=".5em">50%</text><line transform="rotate(90)" y2="6" stroke="grey"/></g><g class="tick" transform="translate(-103.92304845413264,-20)"><text text-anchor="end" transform="rotate(0)" dx="-11" dy=".5em">60%</text><line transform="rotate(90)" y2="6" stroke="grey"/></g><g class="tick" transform="translate(-121.2435565298214,10)"><text text-anchor="end" transform="rotate(0)" dx="-11" dy=".5em">70%</text><line transform="rotate(90)" y2="6" stroke="grey"/></g><g class="tick" transform="translate(-138.5640646055102,40)"><text text-anchor="end" transform="rotate(0)" dx="-11" dy=".5em">80%</text><line transform="rotate(90)" y2="6" stroke="grey"/></g><g class="tick" transform="translate(-155.884572681199,70)"><text text-anchor="end" transform="rotate(0)" dx="-11" dy=".5em">90%</text><line transform="rotate(90)" y2="6" stroke="grey"/></g><g class="tick" transform="translate(-173.20508075688775,100)"><text text-anchor="end" transform="rotate(0)" dx="-11" dy=".5em">100%</text><line transform="rotate(90)" y2="6" stroke="grey"/></g></g><g class="axis-ticks"><g class="tick" transform="translate(-173.20508075688775,99.99999999999999)"><text text-anchor="end" transform="rotate(-60)" dx="-11" dy=".5em">0%</text><line transform="rotate(30)" y2="6" stroke="grey"/></g><g class="tick" transform="translate(-138.5640646055102,99.99999999999999)"><text text-anchor="end" transform="rotate(-60)" dx="-11" dy=".5em">10%</text><line transform="rotate(30)" y2="6" stroke="grey"/></g><g class="tick" transform="translate(-103.92304845413265,99.99999999999999)"><text text-anchor="end" transform="rotate(-60)" dx="-11" dy=".5em">20%</text><line transform="rotate(30)" y2="6" stroke="grey"/></g><g class="tick" transform="translate(-69.2820323027551,99.99999999999999)"><text text-anchor="end" transform="rotate(-60)" dx="-11" dy=".5em">30%</text><line transform="rotate(30)" y2="6" stroke="grey"/></g><g class="tick" transform="translate(-34.641016151377556,99.99999999999999)"><text text-anchor="end" transform="rotate(-60)" dx="-11" dy=".5em">40%</text><line transform="rotate(30)" y2="6" stroke="grey"/></g><g class="tick" transform="translate(0,99.99999999999999)"><text text-anchor="end" transform="rotate(-60)" dx="-11" dy=".5em">50%</text><line transform="rotate(30)" y2="6" stroke="grey"/></g><g class="tick" transform="translate(34.641016151377556,99.99999999999999)"><text text-anchor="end" transform="rotate(-60)" dx="-11" dy=".5em">60%</text><line transform="rotate(30)" y2="6" stroke="grey"/></g><g class="tick" transform="translate(69.28203230275508,99.99999999999999)"><text text-anchor="end" transform="rotate(-60)" dx="-11" dy=".5em">70%</text><line transform="rotate(30)" y2="6" stroke="grey"/></g><g class="tick" transform="translate(103.92304845413264,99.99999999999999)"><text text-anchor="end" transform="rotate(-60)" dx="-11" dy=".5em">80%</text><line transform="rotate(30)" y2="6" stroke="grey"/></g><g class="tick" transform="translate(138.56406460551023,99.99999999999999)"><text text-anchor="end" transform="rotate(-60)" dx="-11" dy=".5em">90%</text><line transform="rotate(30)" y2="6" stroke="grey"/></g><g class="tick" transform="translate(173.20508075688775,99.99999999999999)"><text text-anchor="end" transform="rotate(-60)" dx="-11" dy=".5em">100%</text><line transform="rotate(30)" y2="6" stroke="grey"/></g></g></g><g class="data" clip-path="url(#trianglePath)"><circle r="4" cx="0" cy="-1.1102230246251565e-14" fill="#444" stroke="#ddd"/><circle r="4" cx="0" cy="-1.1102230246251565e-14" fill="#444" stroke="#ddd"/><circle r="4" cx="0" cy="-1.1102230246251565e-14" fill="#444" stroke="#ddd"/><circle r="4" cx="0" cy="-1.1102230246251565e-14" fill="#444" stroke="#ddd"/><circle r="4" cx="0" cy="-1.1102230246251565e-14" fill="#444" stroke="#ddd"/><circle r="4" cx="0" cy="-1.1102230246251565e-14" fill="#444" stroke="#ddd"/><circle r="4" cx="0" cy="-1.1102230246251565e-14" fill="#444" stroke="#ddd"/><circle r="4" cx="0" cy="-1.1102230246251565e-14" fill="#444" stroke="#ddd"/><circle r="4" cx="0" cy="-1.1102230246251565e-14" fill="#444" stroke="#ddd"/><circle r="4" cx="0" cy="-1.1102230246251565e-14" fill="#444" stroke="#ddd"/><circle r="4" cx="0" cy="-1.1102230246251565e-14" fill="#444" stroke="#ddd"/><circle r="4" cx="0" cy="-1.1102230246251565e-14" fill="#444" stroke="#ddd"/><circle r="4" cx="0" cy="-1.1102230246251565e-14" fill="#444" stroke="#ddd"/><circle r="4" cx="0" cy="-1.1102230246251565e-14" fill="#444" stroke="#ddd"/><circle r="4" cx="0" cy="-1.1102230246251565e-14" fill="#444" stroke="#ddd"/><circle r="4" cx="0" cy="-1.1102230246251565e-14" fill="#444" stroke="#ddd"/><circle r="4" cx="0" cy="-1.1102230246251565e-14" fill="#444" stroke="#ddd"/><circle r="4" cx="0" cy="-1.1102230246251565e-14" fill="#444" stroke="#ddd"/></g><path d="M1.2246467991473532e-14,-200L-173.20508075688775,99.99999999999999L173.20508075688775,99.99999999999999Z" fill="transparent" stroke="black" stroke-width="2"/></g></svg>